<?xml version="1.0" standalone="no"?>
<!DOCTYPE svg PUBLIC "-//W3C//DTD SVG 20010904//EN"
 "http://www.w3.org/TR/2001/REC-SVG-20010904/DTD/svg10.dtd">
<svg version="1.0" xmlns="http://www.w3.org/2000/svg"
 width="1000.000000pt" height="534.000000pt" viewBox="0 0 1000.000000 534.000000"
 preserveAspectRatio="xMidYMid meet">

<g transform="translate(0.000000,534.000000) scale(0.100000,-0.100000)"
fill="#000000" stroke="none">
<path d="M2881 5065 c-112 -25 -205 -77 -285 -158 -86 -85 -126 -153 -158
-262 -20 -70 -23 -101 -22 -245 1 -146 4 -176 27 -263 59 -213 207 -545 410
-916 118 -215 226 -452 257 -563 43 -154 44 -318 2 -441 -62 -186 -276 -385
-552 -516 -113 -53 -277 -117 -284 -110 -2 2 7 54 20 114 153 718 -26 1351
-441 1556 -110 54 -216 73 -365 66 -64 -4 -153 -16 -200 -28 -282 -70 -593
-314 -718 -564 -38 -77 -88 -218 -112 -319 -69 -288 -2 -633 168 -856 65 -86
169 -183 262 -245 182 -120 453 -230 686 -276 l111 -22 64 45 c35 25 87 58
114 74 l50 28 -55 -64 c-241 -285 -269 -308 -440 -361 -145 -46 -407 -27 -531
37 -27 13 -30 13 -36 -3 -4 -10 -8 -74 -8 -143 0 -116 2 -129 27 -180 60 -123
141 -180 280 -201 108 -16 195 0 311 59 162 81 356 297 509 568 l63 111 180 6
c418 14 792 124 1090 320 121 81 285 247 347 353 166 284 200 583 103 918 -63
218 -188 494 -337 746 -192 325 -240 428 -264 560 -46 260 28 469 194 543 59
27 204 57 273 57 l39 0 0 53 c0 74 -25 170 -62 239 -62 116 -191 215 -345 265
-99 32 -274 40 -372 18z m-1260 -2255 c146 -28 288 -136 361 -276 42 -79 81
-220 99 -351 16 -121 6 -421 -18 -533 -22 -102 -17 -100 -184 -75 -396 58
-809 340 -891 608 -66 219 58 459 300 579 109 54 218 70 333 48z"/>
<path d="M8770 3514 c-14 -2 -42 -9 -62 -15 l-38 -10 0 -85 c0 -206 -83 -433
-250 -682 -77 -116 -96 -139 -106 -130 -2 3 -34 121 -69 262 -107 422 -167
542 -310 619 -34 19 -56 22 -155 22 -100 0 -126 -4 -197 -28 -46 -16 -85 -33
-88 -37 -3 -5 62 -175 144 -377 l149 -367 -30 -84 c-77 -220 -217 -506 -302
-619 -56 -74 -142 -149 -183 -159 -35 -9 -72 5 -97 39 -19 25 -21 41 -20 140
2 166 40 321 174 709 60 177 109 361 117 444 11 117 -40 202 -154 259 -59 29
-164 45 -238 36 l-49 -6 -51 -127 c-46 -119 -65 -151 -65 -112 0 32 -52 124
-90 158 -89 80 -195 110 -367 105 -100 -4 -114 -7 -187 -42 -189 -90 -295
-214 -455 -534 -182 -362 -242 -582 -247 -898 l-2 -180 -29 -22 c-64 -52 -139
-19 -162 72 -29 114 -7 260 99 680 144 569 158 651 121 724 -43 83 -164 179
-269 211 -123 38 -172 24 -246 -70 -113 -145 -369 -636 -569 -1090 -66 -152
-99 -222 -92 -195 4 11 46 155 95 320 87 298 164 576 195 710 38 162 12 240
-95 294 -82 40 -147 52 -271 49 l-103 -3 -28 -90 c-91 -290 -247 -924 -328
-1330 -92 -468 -111 -674 -69 -745 32 -54 59 -80 114 -108 45 -24 61 -27 150
-27 81 0 106 4 129 18 56 37 170 238 496 877 218 427 270 525 270 507 0 -5
-11 -52 -24 -105 -94 -375 -144 -784 -116 -950 16 -95 68 -201 120 -242 92
-73 233 -115 360 -107 147 8 244 60 348 186 l50 59 54 -61 c64 -72 154 -129
252 -159 91 -28 171 -21 258 23 87 43 225 185 300 308 l57 93 11 -44 c33 -130
78 -217 153 -295 78 -81 123 -103 213 -103 56 0 81 6 134 31 131 62 263 182
399 362 29 40 51 65 48 57 -71 -190 -84 -289 -46 -366 39 -82 21 -94 338 215
l289 281 65 -134 c122 -251 213 -353 366 -409 83 -30 263 -30 346 1 218 80
428 344 534 670 34 104 76 307 91 437 28 257 -7 474 -99 614 l-29 44 -6 -44
c-4 -24 -11 -84 -17 -134 -31 -270 -151 -647 -269 -846 -51 -86 -131 -168
-191 -197 -53 -26 -145 -30 -188 -8 -52 27 -132 126 -212 264 l-38 65 90 101
c182 203 296 371 411 601 85 169 111 259 111 380 -1 158 -47 251 -154 305 -39
21 -138 33 -189 24z m-2061 -320 c22 -18 37 -46 55 -102 43 -138 43 -164 -2
-304 -49 -150 -75 -244 -102 -367 -16 -70 -38 -127 -90 -230 -184 -363 -344
-504 -446 -394 -37 40 -47 94 -41 223 17 344 279 1011 458 1164 36 30 50 36
90 36 36 0 55 -6 78 -26z m1213 -1029 c-46 -51 -155 -191 -214 -275 -10 -14 9
31 41 100 64 136 122 287 142 364 l12 49 37 -89 37 -89 -55 -60z"/>
</g>
</svg>
